<svg
            width="373"
            height="509"
            xmlns="http://www.w3.org/2000/svg"
          >
            <defs>
              <linearGradient
                x1="92.827%"
                y1="0%"
                x2="53.422%"
                y2="80.087%"
                id="a"
              >
                <stop stop-color="#2aff63" offset="0%" />
                <stop
                  stop-color="#9c45ff"
                  stop-opacity="0"
                  offset="100%"
                />
              </linearGradient>
              <linearGradient
                x1="92.827%"
                y1="0%"
                x2="53.406%"
                y2="80.12%"
                id="b"
              >
                <stop stop-color="#2aff63" offset="0%" />
                <stop
                  stop-color="#9c45ff"
                  stop-opacity="0"
                  offset="80.532%"
                />
                <stop
                  stop-color="#FDFFDA"
                  stop-opacity="0"
                  offset="100%"
                />
              </linearGradient>
            </defs>
            <g fill="none" fillRule="evenodd">
              <path
                d="M569.68 0c-19.565 58.65-48.973 82.609-88.226 71.879-58.88-16.095-158.9-18.265-211.392 76.845-52.493 95.111-120.687 141.043-180.233 99.645C50.13 220.769 20.188 241.904 0 311.77L256.439 476c173.506-3.565 256.009-43.374 247.507-119.426-8.502-76.052 28.923-137.445 112.275-184.178L620 71.88 569.68 0z"
                fill="url(#a)"
                transform="translate(1 -209)"
              />
              <path
                d="M684.961 186.461c-19.656 58.528-49.135 82.46-88.438 71.797-58.955-15.994-159.129-18.054-211.804 76.881-52.674 94.935-121.023 140.827-180.62 99.592-39.73-27.49-69.742-6.376-90.035 63.343l256.668 163.56c173.782-3.739 256.455-43.537 248.02-119.396-8.436-75.858 29.112-137.141 112.644-183.848l3.89-100.277-50.325-71.652z"
                fill="url(#b)"
                transform="rotate(-53 215.58 318.545)"
              />
            </g>
          </svg>